<svg width="33" height="33" viewBox="0 0 33 33" fill="none" xmlns="http://www.w3.org/2000/svg">
<g id="package-svgrepo-com 1">
<path id="Vector" fill-rule="evenodd" clip-rule="evenodd" d="M18.6038 1.39835C17.952 1.06688 17.2312 0.894104 16.5 0.894104C15.7688 0.894104 15.048 1.06688 14.3962 1.39835L3.46913 6.95885C3.04561 7.17489 2.69007 7.50383 2.44183 7.90932C2.19359 8.3148 2.06231 8.78104 2.0625 9.25647V23.1103C2.0625 24.4674 2.82563 25.709 4.03425 26.3278L14.3942 31.6016C15.0465 31.9337 15.768 32.1069 16.5 32.1069C17.232 32.1069 17.9535 31.9337 18.6058 31.6016L28.9657 26.3278C29.5593 26.0256 30.0576 25.5651 30.4056 24.9972C30.7536 24.4294 30.9377 23.7763 30.9375 23.1103V9.25647C30.9375 8.2871 30.393 7.40022 29.5288 6.95885L18.6038 1.39835ZM15.7987 4.15591C16.016 4.04542 16.2563 3.98783 16.5 3.98783C16.7437 3.98783 16.984 4.04542 17.2013 4.15591L26.3505 8.81304L23.3228 10.3269L13.4124 5.37072L15.7987 4.15385V4.15591ZM9.9825 7.1156L6.64744 8.81304L16.5 13.7383L19.8639 12.0573L9.9825 7.1156ZM5.15625 11.5252V23.1103C5.15625 23.3042 5.26556 23.4815 5.43881 23.5702L14.9531 28.413V16.4257L5.15625 11.5252ZM27.5612 23.5702L18.0469 28.413V16.4257L27.8438 11.5273V23.1124C27.8437 23.2076 27.8173 23.3011 27.7675 23.3822C27.7176 23.4634 27.6462 23.5272 27.5612 23.5702Z" fill="#4B2900"/>
</g>
</svg>
